<?xml version="1.0" standalone="no"?>
<!DOCTYPE svg PUBLIC "-//W3C//DTD SVG 20010904//EN"
 "http://www.w3.org/TR/2001/REC-SVG-20010904/DTD/svg10.dtd">
<svg version="1.0" xmlns="http://www.w3.org/2000/svg"
 width="960.000000pt" height="960.000000pt" viewBox="0 0 960.000000 960.000000"
 preserveAspectRatio="xMidYMid meet">
<metadata>
Created by potrace 1.14, written by Peter Selinger 2001-2017
</metadata>
<g transform="translate(0.000000,960.000000) scale(0.100000,-0.100000)"
fill="#000000" stroke="none">
<path d="M5224 8713 c-61 -49 -117 -94 -125 -101 -18 -16 -242 -197 -293 -237
-21 -16 -46 -37 -56 -45 -10 -8 -84 -69 -165 -135 -81 -66 -156 -127 -165
-135 -10 -8 -35 -29 -57 -46 -188 -152 -330 -269 -338 -278 -5 -6 -35 -30 -65
-53 -30 -23 -64 -50 -75 -60 -11 -10 -54 -45 -95 -77 -41 -33 -77 -63 -80 -66
-3 -3 -52 -43 -110 -90 -58 -46 -114 -92 -125 -101 -11 -10 -38 -33 -61 -51
-76 -61 -115 -93 -135 -110 -11 -9 -37 -30 -57 -46 -20 -17 -93 -76 -161 -131
-67 -55 -139 -113 -158 -128 -20 -15 -41 -33 -47 -38 -6 -6 -45 -38 -86 -70
-41 -33 -80 -64 -86 -70 -6 -5 -100 -82 -209 -170 -109 -88 -228 -185 -265
-215 -36 -30 -83 -68 -104 -85 -22 -16 -44 -35 -50 -40 -6 -6 -33 -28 -61 -50
-27 -22 -55 -44 -61 -50 -6 -5 -25 -21 -43 -35 -18 -14 -38 -30 -44 -35 -7 -6
-34 -28 -62 -50 -27 -22 -52 -42 -55 -45 -3 -3 -63 -53 -135 -110 -71 -58
-132 -107 -135 -110 -3 -3 -59 -50 -125 -104 -66 -54 -129 -105 -140 -114 -11
-9 -43 -35 -70 -57 -28 -22 -55 -44 -61 -50 -6 -6 -34 -28 -62 -50 -29 -21
-52 -43 -52 -47 0 -4 -7 -8 -15 -8 -8 0 -15 -3 -15 -8 0 -4 -24 -26 -53 -49
-30 -23 -65 -51 -78 -62 -13 -11 -42 -35 -65 -53 -22 -18 -60 -49 -83 -68 -24
-19 -54 -45 -67 -57 -13 -13 -27 -23 -33 -23 -5 0 -11 -3 -13 -8 -1 -4 -52
-48 -113 -97 -60 -49 -112 -92 -115 -95 -3 -3 -27 -23 -55 -45 -27 -21 -52
-42 -55 -45 -3 -3 -27 -23 -55 -45 -27 -22 -57 -48 -67 -57 -9 -9 -26 -21 -37
-28 -29 -15 -26 -32 12 -65 126 -110 186 -164 216 -192 l34 -32 36 27 c20 14
41 31 46 36 16 18 202 156 209 156 3 0 6 -5 6 -11 0 -16 -93 -203 -102 -207
-5 -2 -8 -8 -8 -13 0 -4 -12 -34 -26 -66 -15 -31 -27 -63 -28 -70 -1 -7 -8
-19 -14 -25 -7 -7 -12 -21 -12 -33 0 -12 -5 -26 -12 -33 -7 -7 -9 -12 -6 -12
4 0 1 -15 -7 -33 -17 -40 -61 -215 -70 -277 -59 -392 -29 -757 91 -1090 40
-113 117 -272 186 -384 34 -56 65 -103 68 -106 11 -8 68 -103 72 -120 3 -16
-28 -17 -459 -20 -117 0 -214 -4 -214 -8 -1 -4 -2 -225 -3 -490 -1 -315 2
-486 9 -490 15 -10 64 -11 980 -17 2023 -13 8201 -3 8548 14 15 1 17 14 17
131 0 97 -3 130 -12 131 -7 1 -138 3 -291 4 -296 3 -321 6 -330 50 -2 13 -3
260 -3 549 1 293 -3 526 -8 526 -5 0 -4 6 1 13 5 6 7 50 6 97 -3 103 -3 79 0
238 1 72 -2 132 -7 132 -5 0 -4 6 1 13 5 6 7 50 6 97 -3 101 -3 69 0 273 1 92
-2 167 -6 167 -5 0 -5 5 -1 12 10 15 11 187 2 216 -4 12 -4 22 0 22 9 0 8 92
-1 107 -4 6 -4 13 0 16 8 9 10 317 1 317 -4 0 -5 7 -1 16 9 23 10 195 1 222
-4 12 -4 22 0 22 4 0 7 42 6 93 0 101 10 157 29 157 7 -1 70 -59 142 -130
l130 -129 55 31 c77 43 209 130 245 161 l29 26 -24 28 c-42 46 -329 338 -438
446 -57 56 -116 122 -130 147 l-27 45 0 842 c0 463 -3 845 -7 848 -4 4 -4 13
-2 20 12 31 -34 36 -369 35 -182 0 -341 -2 -352 -4 -11 -3 -23 -5 -28 -5 -4
-1 -6 -90 -5 -198 l3 -198 183 0 c155 0 182 -2 183 -15 1 -8 3 -26 5 -40 17
-130 17 -753 0 -835 -3 -11 -5 -28 -5 -37 -1 -10 -5 -18 -9 -18 -11 0 -193
181 -639 636 -193 198 -468 477 -610 621 -142 143 -375 380 -518 526 -305 311
-890 907 -1207 1230 -146 148 -230 227 -243 227 -11 0 -70 -39 -131 -87z m427
-367 c158 -160 349 -355 426 -432 157 -161 853 -869 1180 -1200 390 -396 1079
-1096 1180 -1200 306 -315 686 -705 811 -831 78 -80 142 -148 142 -152 0 -13
-44 -58 -68 -70 -46 -24 -10 -56 -580 528 -152 156 -331 338 -397 406 -66 67
-237 243 -380 390 -143 147 -311 319 -374 384 -62 64 -190 196 -285 294 -94
98 -205 214 -246 256 -41 43 -149 156 -240 251 -91 95 -192 201 -225 235 -33
34 -130 136 -215 225 -85 90 -184 193 -220 230 -36 38 -128 134 -205 215 -77
81 -166 175 -199 209 -32 33 -93 99 -135 145 -162 177 -241 261 -250 262 -3 0
-14 2 -23 4 -15 3 -78 -36 -114 -69 -7 -6 -22 -20 -35 -31 -93 -77 -336 -281
-345 -290 -7 -5 -20 -17 -30 -25 -24 -19 -260 -218 -294 -247 -60 -52 -73 -63
-112 -95 -23 -18 -74 -61 -114 -94 -40 -34 -80 -68 -89 -75 -9 -8 -24 -21 -34
-29 -9 -8 -38 -32 -64 -53 -25 -21 -52 -43 -59 -50 -7 -7 -92 -77 -188 -157
-96 -80 -180 -149 -186 -155 -26 -24 -73 -63 -119 -100 -28 -21 -52 -42 -55
-45 -3 -3 -27 -24 -55 -45 -27 -22 -57 -47 -65 -55 -8 -8 -51 -44 -95 -80
-106 -86 -125 -102 -145 -120 -9 -8 -52 -44 -95 -80 -44 -35 -85 -69 -91 -75
-6 -5 -37 -30 -68 -55 -32 -25 -73 -60 -92 -77 -20 -18 -38 -33 -40 -33 -2 0
-13 -8 -23 -17 -25 -23 -38 -34 -146 -122 -49 -40 -92 -76 -95 -80 -3 -3 -27
-24 -55 -46 -27 -22 -55 -44 -61 -50 -6 -5 -29 -23 -50 -40 -21 -16 -52 -42
-69 -56 -16 -14 -39 -33 -50 -42 -112 -90 -158 -127 -194 -157 -24 -19 -52
-42 -63 -50 -11 -8 -30 -24 -43 -35 -13 -11 -38 -32 -56 -47 -118 -93 -327
-262 -344 -277 -11 -9 -47 -39 -80 -66 -33 -26 -78 -63 -100 -81 -22 -18 -96
-78 -165 -134 -133 -109 -135 -110 -279 -228 -52 -42 -126 -103 -165 -134 -39
-32 -78 -64 -86 -71 -76 -67 -330 -266 -340 -266 -3 -1 -27 19 -55 44 l-50 45
46 42 c25 24 57 52 70 63 13 11 49 40 79 65 30 25 57 47 60 50 3 3 25 21 50
40 25 19 47 37 50 40 3 3 19 16 35 29 17 12 48 38 70 56 22 19 96 79 165 135
69 56 141 114 160 130 109 89 343 279 376 305 20 17 42 35 48 40 6 6 58 48
116 95 58 46 110 89 116 95 6 5 29 24 50 40 43 34 190 153 226 184 13 10 91
74 173 140 83 67 159 129 170 139 11 10 56 47 100 82 44 36 82 67 85 70 3 3
37 30 75 60 39 30 79 63 90 73 11 11 36 31 55 45 19 15 37 29 40 32 3 3 52 44
110 90 58 47 110 90 116 95 18 16 85 71 154 126 36 28 85 68 110 89 25 21 101
83 170 139 69 56 141 114 160 130 19 16 69 56 110 90 41 33 81 66 87 71 7 6
72 58 145 117 73 59 135 109 138 112 3 4 28 24 55 46 28 22 56 45 63 52 8 8
30 26 50 41 39 29 52 39 123 98 26 22 64 53 85 69 21 17 54 44 73 60 20 17 59
48 86 70 59 47 93 75 111 93 7 6 15 12 18 12 3 0 14 8 24 18 10 9 35 31 56 47
22 17 49 39 62 50 13 11 38 31 56 45 18 14 39 32 48 40 8 8 25 22 37 30 30 22
275 221 294 239 9 9 26 23 39 31 12 8 29 20 37 26 9 6 23 11 31 11 8 0 145
-131 303 -291z m3029 -1559 c69 -3 132 -8 141 -11 10 -4 19 -19 22 -34 7 -34
1 -1242 -6 -1341 -3 -40 -8 -75 -10 -77 -11 -12 -58 19 -73 48 -15 29 -17 91
-19 613 -1 319 -3 592 -4 606 -1 23 -5 26 -48 28 -63 4 -206 9 -265 10 -67 1
-91 27 -85 87 2 25 9 50 15 56 15 15 81 24 152 21 30 -1 111 -4 180 -6z
m-6328 -1503 c79 -40 217 -209 181 -221 -10 -4 -373 -272 -411 -304 -12 -10
-25 -19 -29 -19 -4 0 -16 -9 -27 -19 -12 -10 -56 -44 -99 -75 -92 -65 -95 -65
-183 19 -231 223 -323 314 -339 338 -18 28 -18 29 1 47 24 23 110 70 129 70 7
0 15 4 17 8 5 14 218 89 332 117 107 26 126 29 216 41 25 4 46 7 48 9 1 1 31
3 67 4 44 1 74 -3 97 -15z m402 -3 c14 -12 14 -15 -2 -39 -40 -64 -76 -76
-125 -43 -42 27 -90 88 -75 94 27 10 186 1 202 -12z m326 -65 c85 -26 245 -93
344 -146 105 -55 279 -170 334 -220 29 -27 43 -60 25 -60 -5 0 -25 -16 -45
-35 -20 -19 -39 -35 -43 -35 -5 0 -33 -21 -120 -88 -101 -78 -186 -132 -208
-132 -21 0 -62 34 -189 159 -306 299 -404 396 -416 413 -11 14 -3 23 65 72 43
30 83 59 88 64 40 34 72 36 165 8z m-389 -249 c28 -24 432 -412 506 -486 24
-24 48 -52 53 -61 9 -18 18 -10 -283 -233 -50 -38 -104 -79 -119 -90 -14 -12
-36 -29 -48 -37 -12 -8 -45 -32 -73 -53 -29 -21 -63 -46 -76 -55 -13 -9 -29
-23 -36 -29 -8 -7 -17 -13 -21 -13 -21 0 -147 115 -418 381 l-210 207 33 28
c18 15 38 33 45 39 6 6 27 22 46 35 19 13 40 28 45 32 6 5 53 40 105 78 52 38
100 73 105 77 6 5 44 33 85 63 41 30 77 57 80 60 5 5 39 29 89 62 35 24 61 22
92 -5z m-1365 -19 c1 -2 66 -64 144 -138 78 -74 179 -170 223 -212 l82 -78
-40 -38 c-22 -21 -56 -49 -75 -62 -19 -13 -37 -27 -40 -30 -3 -3 -30 -23 -60
-45 -30 -22 -57 -42 -60 -45 -3 -3 -39 -30 -80 -60 -41 -30 -84 -63 -94 -72
-11 -10 -26 -18 -33 -18 -7 0 -13 -4 -13 -8 0 -4 -13 -13 -29 -19 -42 -16 -60
-2 -258 199 -141 142 -173 180 -173 203 0 29 35 67 195 210 43 39 83 75 89 80
68 62 154 133 166 137 14 5 49 2 56 -4z m7504 -231 l22 -37 0 -1726 c1 -1457
-1 -1728 -13 -1739 -16 -15 -99 -30 -100 -18 0 4 -3 17 -6 28 -5 22 -10 3434
-5 3527 l4 58 38 -28 c22 -15 48 -44 60 -65z m-4862 -59 c46 -49 102 -114 145
-170 39 -49 135 -195 161 -243 24 -48 28 -89 9 -105 -15 -13 -298 -226 -310
-234 -8 -4 -27 7 -51 31 -22 21 -136 132 -256 247 -119 116 -216 212 -216 215
0 3 26 24 58 46 31 22 66 47 77 57 11 9 79 60 150 112 86 63 139 95 157 96 19
0 40 -14 76 -52z m-2869 -646 c-13 -15 -28 -30 -34 -34 -5 -4 -18 -13 -28 -20
-11 -7 -69 -51 -131 -98 -61 -47 -133 -101 -159 -120 -27 -19 -63 -47 -82 -62
-18 -16 -36 -28 -39 -28 -7 0 -77 -52 -104 -77 -19 -18 -57 -26 -85 -19 -28 7
-46 41 -41 76 9 61 37 176 46 188 6 6 8 12 5 12 -6 0 43 149 63 195 57 129 79
173 122 249 28 49 65 102 82 118 l30 29 189 -191 189 -191 -23 -27z m869 321
c44 -43 173 -168 286 -277 114 -111 206 -207 206 -217 0 -16 -190 -177 -265
-225 -16 -10 -35 -23 -41 -29 -28 -24 -55 -45 -59 -45 -2 0 -32 -20 -67 -44
-35 -24 -77 -51 -95 -60 l-32 -16 -123 119 c-68 65 -166 162 -218 216 -52 53
-130 133 -172 176 -43 44 -78 81 -78 83 0 2 26 23 58 47 31 24 59 47 62 50 3
3 38 30 79 59 41 29 79 57 85 62 6 5 36 27 66 49 30 22 68 50 83 61 119 90
123 90 225 -9z m1410 -32 c28 -15 472 -457 472 -470 0 -12 -48 -61 -59 -61 -3
0 -17 -10 -31 -22 -14 -13 -56 -45 -93 -73 -38 -27 -79 -59 -91 -71 -12 -12
-27 -23 -34 -25 -6 -2 -24 -14 -39 -27 -34 -28 -132 -101 -163 -122 -12 -8
-51 -37 -87 -63 l-64 -49 -57 54 c-51 48 -95 89 -282 268 -31 30 -85 81 -119
113 -33 33 -61 62 -61 65 0 4 22 23 48 42 26 19 54 40 62 48 8 7 40 31 70 53
30 22 66 49 80 59 14 10 50 37 80 59 30 22 60 44 65 48 44 36 231 166 249 173
28 12 34 12 54 1z m1009 -336 c39 -72 80 -193 98 -290 2 -11 7 -31 10 -45 11
-48 18 -220 9 -220 -35 0 -167 112 -336 284 -121 123 -119 117 -41 184 54 47
50 44 118 92 28 19 56 40 64 48 24 23 45 9 78 -53z m-2866 -325 c159 -157 289
-291 289 -297 0 -9 -158 -131 -335 -257 -11 -8 -49 -36 -85 -63 -36 -27 -105
-77 -153 -112 l-88 -63 -117 115 c-64 64 -197 194 -294 290 -98 95 -178 178
-178 184 0 18 90 92 345 283 242 181 281 207 312 207 9 0 145 -129 304 -287z
m1154 14 c201 -191 395 -387 395 -400 0 -20 -24 -42 -157 -141 -65 -48 -120
-90 -123 -93 -30 -33 -248 -183 -270 -186 -27 -5 -50 15 -276 241 l-247 246
34 30 c19 16 41 35 49 43 8 7 28 22 45 32 16 10 37 26 46 34 9 8 28 24 44 35
15 11 93 68 174 127 108 79 154 107 176 108 24 0 46 -16 110 -76z m1395 -21
c198 -187 390 -379 390 -391 0 -6 -33 -37 -72 -69 -40 -32 -74 -61 -76 -65 -2
-5 -8 -8 -14 -8 -5 0 -15 -6 -22 -12 -7 -7 -25 -22 -40 -33 -71 -52 -344 -258
-364 -276 -13 -11 -39 -23 -57 -26 -37 -6 -42 -2 -220 172 -51 50 -135 131
-186 181 -116 112 -121 118 -113 137 3 9 31 35 62 59 31 24 68 53 82 66 14 12
28 22 32 22 3 0 13 6 20 13 7 7 40 33 72 57 33 24 67 49 75 56 89 73 290 214
307 214 12 0 61 -38 124 -97z m-3288 -597 c143 -142 258 -261 256 -266 -2 -6
-190 -150 -294 -225 -15 -11 -32 -24 -38 -30 -36 -32 -141 -95 -152 -91 -13 5
-64 106 -64 126 0 6 -4 18 -9 28 -10 19 -56 169 -67 222 -4 19 -9 42 -11 50
-2 8 -6 24 -8 35 -2 11 -6 36 -10 55 -12 60 -16 101 -20 230 -4 134 -3 139 50
177 l30 22 39 -37 c22 -20 156 -153 298 -296z m1378 -33 c125 -125 229 -238
232 -250 4 -16 -3 -28 -30 -50 -19 -15 -43 -36 -53 -45 -11 -10 -23 -18 -28
-18 -5 0 -11 -3 -13 -7 -1 -5 -104 -84 -228 -177 -124 -94 -227 -173 -230
-177 -10 -14 -52 -26 -75 -21 -12 2 -132 114 -265 248 -281 281 -266 240 -126
345 45 33 89 67 99 75 9 8 21 14 26 14 5 0 11 4 13 8 3 8 237 184 253 191 6 2
12 7 15 10 13 17 89 71 99 71 6 0 11 5 11 11 0 8 13 10 37 6 32 -6 68 -38 263
-234z m1056 125 c55 -43 474 -462 474 -474 0 -12 -20 -31 -101 -92 -36 -27
-180 -138 -239 -185 -9 -7 -54 -41 -100 -77 -47 -35 -86 -68 -88 -72 -2 -4
-10 -8 -17 -8 -7 0 -15 -5 -17 -11 -6 -18 -520 497 -516 517 2 10 28 37 58 61
71 56 56 45 200 151 69 51 133 100 143 108 43 35 149 104 161 104 7 0 26 -10
42 -22z m1290 -58 c-2 -3 -6 -44 -10 -91 -4 -47 -9 -97 -11 -110 -3 -13 -7
-37 -10 -54 -5 -25 -13 -66 -21 -97 -1 -5 -2 -9 -4 -10 -1 -2 -3 -10 -5 -18
-18 -93 -140 -380 -160 -380 -51 0 -396 314 -378 344 4 7 44 42 88 77 44 35
85 68 90 72 52 44 293 217 302 217 6 0 13 4 15 8 8 19 93 69 100 59 4 -6 5
-14 4 -17z m-3363 -408 c21 -9 464 -448 479 -475 17 -32 -3 -50 -322 -287 -14
-11 -68 -51 -120 -90 -124 -93 -124 -93 -255 44 -55 57 -116 124 -135 150 -19
25 -43 56 -53 69 -11 12 -31 42 -45 67 -14 25 -29 47 -33 50 -14 11 -39 70
-39 94 0 17 14 36 47 63 66 52 56 45 178 134 61 44 117 86 125 92 40 32 117
85 130 90 19 7 22 7 43 -1z m1614 -254 c201 -202 268 -279 252 -292 -4 -4
-178 -137 -228 -175 -17 -14 -44 -34 -60 -45 -16 -12 -84 -64 -151 -116 -67
-52 -132 -102 -144 -110 -11 -8 -27 -21 -35 -28 -15 -15 -32 0 -229 201 -48
49 -135 138 -194 198 -60 60 -108 116 -108 123 0 8 33 39 73 70 39 30 79 61
87 69 8 7 60 46 115 87 55 41 102 78 103 83 2 4 10 7 17 7 8 0 18 6 22 13 4 6
26 25 49 40 22 15 49 35 60 45 36 33 89 62 114 62 18 0 78 -54 257 -232z
m1101 111 c20 -18 53 -49 73 -68 271 -266 267 -262 263 -288 -4 -22 -23 -57
-47 -88 -114 -150 -130 -168 -235 -273 -105 -104 -178 -162 -205 -162 -23 0
-473 440 -483 474 -4 12 0 25 13 35 66 53 239 189 263 206 15 11 81 61 145
112 134 103 150 107 213 52z m-1871 -688 c126 -126 238 -242 248 -257 l18 -27
-39 -34 c-22 -18 -50 -43 -64 -55 -90 -77 -211 -159 -246 -166 -38 -8 -122 13
-221 55 -17 7 -34 13 -37 13 -12 0 -211 95 -214 102 -2 5 -8 8 -14 8 -6 0 -60
32 -119 71 -119 79 -149 117 -113 144 11 8 21 15 24 15 3 0 113 81 245 180
191 143 246 180 271 180 28 0 59 -28 261 -229z m1376 -30 c128 -128 227 -235
225 -243 -6 -19 -120 -92 -213 -138 -175 -85 -348 -144 -512 -176 -90 -17
-135 -1 -203 70 -25 27 -84 86 -131 133 l-86 86 47 41 c46 39 176 141 250 196
72 54 146 110 160 122 69 61 186 138 208 138 20 0 74 -48 255 -229z m-2961 15
c3 2 94 5 202 4 210 0 243 -6 267 -51 22 -41 4 -44 -293 -46 -308 -2 -398 -8
-408 -23 -5 -8 -6 -516 -1 -572 0 -9 13 -20 29 -26 17 -5 1756 -9 4639 -10
2536 0 4621 -3 4632 -7 16 -5 21 -15 21 -39 0 -17 -5 -37 -12 -44 -9 -9 -1066
-12 -4655 -12 l-4644 0 -25 25 c-24 25 -25 26 -24 202 1 98 1 265 0 372 -1
165 2 197 15 210 12 12 39 16 111 17 52 1 98 4 101 8 3 3 13 1 23 -4 10 -5 20
-7 22 -4z m658 -215 c14 -8 27 -17 30 -20 3 -3 25 -20 50 -36 25 -16 47 -32
50 -35 19 -21 198 -126 314 -186 78 -40 140 -78 142 -86 2 -14 -74 -15 -682
-15 -610 1 -684 3 -685 16 -6 74 -3 330 3 344 5 10 18 21 29 25 10 4 178 7
372 7 276 -1 357 -4 377 -14z m1405 -251 c76 -78 96 -103 87 -112 -12 -12
-300 -18 -414 -9 -60 5 -66 26 -18 64 19 15 42 33 50 40 8 7 31 23 50 37 19
13 50 36 68 52 53 45 67 39 177 -72z"/>
</g>
</svg>
